<svg width="89" height="100" xmlns="http://www.w3.org/2000/svg" xmlns:xlink="http://www.w3.org/1999/xlink" overflow="hidden"><defs><clipPath id="clip0"><rect x="241" y="398" width="89" height="100"/></clipPath></defs><g clip-path="url(#clip0)" transform="translate(-241 -398)"><path d="M88.7304 29.4137C88.7297 27.7368 88.371 26.255 87.6458 24.9833 86.9333 23.7327 85.8664 22.6845 84.4353 21.8558 72.6223 15.0443 60.7977 8.25369 48.9885 1.43527 45.8048-0.402737 42.7179-0.33573 39.5578 1.52867 34.8559 4.30165 11.3148 17.7888 4.29992 21.852 1.41097 23.5244 0.00520781 26.0838 0.00451344 29.4106 0 43.1089 0.00451344 56.8068 0 70.5054 0.000694375 72.1456 0.344063 73.5985 1.0374 74.8512 1.75017 76.1396 2.83201 77.2166 4.2961 78.0641 11.3114 82.1272 34.8555 95.6134 39.5565 98.387 42.7179 100.252 45.8048 100.319 48.9895 98.4804 60.7991 91.6617 72.6243 84.8714 84.4391 78.0599 85.9032 77.2128 86.9851 76.1351 87.6978 74.8477 88.3901 73.5951 88.7342 72.1421 88.7349 70.5016 88.7349 70.5016 88.7349 43.1124 88.7304 29.4137" fill="#5C8DBC" transform="matrix(1.00135 0 0 1 241 398)"/><path d="M44.5032 49.8245 1.0374 74.8512C1.75017 76.1396 2.83201 77.2166 4.2961 78.0641 11.3114 82.1272 34.8555 95.6134 39.5565 98.387 42.7179 100.252 45.8048 100.319 48.9895 98.4804 60.7991 91.6617 72.6243 84.8714 84.4391 78.0599 85.9032 77.2128 86.9851 76.1351 87.6978 74.8477L44.5032 49.8245" fill="#1A4674" transform="matrix(1.00135 0 0 1 241 398)"/><path d="M31.6291 57.2377C34.1584 61.6532 38.9131 64.6314 44.3674 64.6314 49.8554 64.6314 54.6372 61.6154 57.1537 57.1526L44.5032 49.8245 31.6291 57.2377" fill="#1A4674" transform="matrix(1.00135 0 0 1 241 398)"/><path d="M88.7304 29.4137C88.7297 27.7368 88.371 26.255 87.6458 24.9833L44.5032 49.8245 87.6978 74.8477C88.3901 73.5951 88.7342 72.1421 88.7349 70.5016 88.7349 70.5016 88.7349 43.1124 88.7304 29.4137" fill="#1B598E" transform="matrix(1.00135 0 0 1 241 398)"/><path d="M86.3552 51.6132 82.9799 51.6132 82.9799 54.9893 79.6038 54.9893 79.6038 51.6132 76.2288 51.6132 76.2288 48.2382 79.6038 48.2382 79.6038 44.8629 82.9799 44.8629 82.9799 48.2382 86.3552 48.2382 86.3552 51.6132M74.0388 51.6132 70.6638 51.6132 70.6638 54.9893 67.2884 54.9893 67.2884 51.6132 63.913 51.6132 63.913 48.2382 67.2884 48.2382 67.2884 44.8629 70.6638 44.8629 70.6638 48.2382 74.0388 48.2382 74.0388 51.6132" fill="#FFFFFF" transform="matrix(1.00135 0 0 1 241 398)"/><path d="M57.1537 57.1526C54.6372 61.6154 49.8554 64.6314 44.3674 64.6314 38.9131 64.6314 34.1584 61.6532 31.6291 57.2377 30.3585 55.0219 29.6913 52.5118 29.6939 49.9579 29.6939 41.8541 36.2637 35.2847 44.3674 35.2847 49.7867 35.2847 54.5164 38.2257 57.0582 42.5961L69.8836 35.2107C64.7859 26.4109 55.2684 20.4907 44.3674 20.4907 28.0927 20.4907 14.8999 33.6838 14.8999 49.9579 14.8999 55.2969 16.3202 60.3037 18.8026 64.6224 23.8875 73.4687 33.4321 79.4254 44.3674 79.4254 55.3229 79.4254 64.8824 73.4447 69.96 64.5724L57.1537 57.1526" fill="#FFFFFF" transform="matrix(1.00135 0 0 1 241 398)"/></g></svg>